<mxfile host="Electron" agent="Mozilla/5.0 (Windows NT 10.0; Win64; x64) AppleWebKit/537.36 (KHTML, like Gecko) draw.io/24.7.8 Chrome/128.0.6613.36 Electron/32.0.1 Safari/537.36" version="24.7.8">
  <diagram name="Page-1" id="qtwL5WaFUek6gc2VbBso">
    <mxGraphModel dx="1035" dy="616" grid="1" gridSize="10" guides="1" tooltips="1" connect="1" arrows="1" fold="1" page="1" pageScale="1" pageWidth="827" pageHeight="1169" math="0" shadow="0">
      <root>
        <mxCell id="0" />
        <mxCell id="1" parent="0" />
        <mxCell id="gPUy4qzwJH0H5ccG5IZ7-21" style="edgeStyle=orthogonalEdgeStyle;rounded=0;orthogonalLoop=1;jettySize=auto;html=1;entryX=0;entryY=0.5;entryDx=0;entryDy=0;jumpStyle=arc;" edge="1" parent="1" source="gPUy4qzwJH0H5ccG5IZ7-1" target="gPUy4qzwJH0H5ccG5IZ7-4">
          <mxGeometry relative="1" as="geometry">
            <Array as="points">
              <mxPoint x="210" y="230" />
              <mxPoint x="210" y="95" />
            </Array>
          </mxGeometry>
        </mxCell>
        <mxCell id="gPUy4qzwJH0H5ccG5IZ7-1" value="ADMIN" style="rounded=1;whiteSpace=wrap;html=1;" vertex="1" parent="1">
          <mxGeometry x="80" y="200" width="120" height="60" as="geometry" />
        </mxCell>
        <mxCell id="gPUy4qzwJH0H5ccG5IZ7-44" style="edgeStyle=orthogonalEdgeStyle;rounded=0;orthogonalLoop=1;jettySize=auto;html=1;entryX=0;entryY=0.5;entryDx=0;entryDy=0;jumpStyle=arc;" edge="1" parent="1" source="gPUy4qzwJH0H5ccG5IZ7-2" target="gPUy4qzwJH0H5ccG5IZ7-4">
          <mxGeometry relative="1" as="geometry">
            <Array as="points">
              <mxPoint x="220" y="570" />
              <mxPoint x="220" y="95" />
            </Array>
          </mxGeometry>
        </mxCell>
        <mxCell id="gPUy4qzwJH0H5ccG5IZ7-47" style="edgeStyle=orthogonalEdgeStyle;rounded=0;orthogonalLoop=1;jettySize=auto;html=1;entryX=0;entryY=0.5;entryDx=0;entryDy=0;jumpStyle=arc;" edge="1" parent="1" source="gPUy4qzwJH0H5ccG5IZ7-2" target="gPUy4qzwJH0H5ccG5IZ7-5">
          <mxGeometry relative="1" as="geometry">
            <Array as="points">
              <mxPoint x="270" y="550" />
              <mxPoint x="270" y="225" />
            </Array>
          </mxGeometry>
        </mxCell>
        <mxCell id="gPUy4qzwJH0H5ccG5IZ7-48" style="edgeStyle=orthogonalEdgeStyle;rounded=0;orthogonalLoop=1;jettySize=auto;html=1;entryX=0;entryY=0.5;entryDx=0;entryDy=0;jumpStyle=arc;" edge="1" parent="1" source="gPUy4qzwJH0H5ccG5IZ7-2" target="gPUy4qzwJH0H5ccG5IZ7-6">
          <mxGeometry relative="1" as="geometry">
            <Array as="points">
              <mxPoint x="250" y="560" />
              <mxPoint x="250" y="335" />
            </Array>
          </mxGeometry>
        </mxCell>
        <mxCell id="gPUy4qzwJH0H5ccG5IZ7-49" style="edgeStyle=orthogonalEdgeStyle;rounded=0;orthogonalLoop=1;jettySize=auto;html=1;entryX=0;entryY=0.5;entryDx=0;entryDy=0;jumpStyle=arc;" edge="1" parent="1" source="gPUy4qzwJH0H5ccG5IZ7-2" target="gPUy4qzwJH0H5ccG5IZ7-7">
          <mxGeometry relative="1" as="geometry">
            <Array as="points">
              <mxPoint x="260" y="580" />
              <mxPoint x="260" y="455" />
            </Array>
          </mxGeometry>
        </mxCell>
        <mxCell id="gPUy4qzwJH0H5ccG5IZ7-50" style="edgeStyle=orthogonalEdgeStyle;rounded=0;orthogonalLoop=1;jettySize=auto;html=1;entryX=0;entryY=0.5;entryDx=0;entryDy=0;jumpStyle=arc;" edge="1" parent="1" source="gPUy4qzwJH0H5ccG5IZ7-2" target="gPUy4qzwJH0H5ccG5IZ7-8">
          <mxGeometry relative="1" as="geometry">
            <Array as="points">
              <mxPoint x="240" y="575" />
              <mxPoint x="240" y="575" />
            </Array>
          </mxGeometry>
        </mxCell>
        <mxCell id="gPUy4qzwJH0H5ccG5IZ7-51" style="edgeStyle=orthogonalEdgeStyle;rounded=0;orthogonalLoop=1;jettySize=auto;html=1;entryX=0;entryY=0.5;entryDx=0;entryDy=0;jumpStyle=arc;" edge="1" parent="1" source="gPUy4qzwJH0H5ccG5IZ7-2" target="gPUy4qzwJH0H5ccG5IZ7-9">
          <mxGeometry relative="1" as="geometry">
            <Array as="points">
              <mxPoint x="270" y="590" />
              <mxPoint x="270" y="705" />
            </Array>
          </mxGeometry>
        </mxCell>
        <mxCell id="gPUy4qzwJH0H5ccG5IZ7-52" style="edgeStyle=orthogonalEdgeStyle;rounded=0;orthogonalLoop=1;jettySize=auto;html=1;entryX=0;entryY=0.5;entryDx=0;entryDy=0;jumpStyle=arc;" edge="1" parent="1" source="gPUy4qzwJH0H5ccG5IZ7-2" target="gPUy4qzwJH0H5ccG5IZ7-11">
          <mxGeometry relative="1" as="geometry">
            <Array as="points">
              <mxPoint x="140" y="660" />
              <mxPoint x="250" y="660" />
              <mxPoint x="250" y="975" />
            </Array>
          </mxGeometry>
        </mxCell>
        <mxCell id="gPUy4qzwJH0H5ccG5IZ7-2" value="CLERK" style="rounded=1;whiteSpace=wrap;html=1;" vertex="1" parent="1">
          <mxGeometry x="80" y="540" width="120" height="60" as="geometry" />
        </mxCell>
        <mxCell id="gPUy4qzwJH0H5ccG5IZ7-45" style="edgeStyle=orthogonalEdgeStyle;rounded=0;orthogonalLoop=1;jettySize=auto;html=1;entryX=0;entryY=0.5;entryDx=0;entryDy=0;jumpStyle=arc;" edge="1" parent="1" source="gPUy4qzwJH0H5ccG5IZ7-3" target="gPUy4qzwJH0H5ccG5IZ7-4">
          <mxGeometry relative="1" as="geometry">
            <Array as="points">
              <mxPoint x="230" y="940" />
              <mxPoint x="230" y="95" />
            </Array>
          </mxGeometry>
        </mxCell>
        <mxCell id="gPUy4qzwJH0H5ccG5IZ7-53" style="edgeStyle=orthogonalEdgeStyle;rounded=0;orthogonalLoop=1;jettySize=auto;html=1;entryX=0;entryY=0.75;entryDx=0;entryDy=0;jumpStyle=arc;" edge="1" parent="1" source="gPUy4qzwJH0H5ccG5IZ7-3" target="gPUy4qzwJH0H5ccG5IZ7-8">
          <mxGeometry relative="1" as="geometry">
            <Array as="points">
              <mxPoint x="220" y="930" />
              <mxPoint x="220" y="620" />
              <mxPoint x="310" y="620" />
              <mxPoint x="310" y="588" />
            </Array>
          </mxGeometry>
        </mxCell>
        <mxCell id="gPUy4qzwJH0H5ccG5IZ7-54" style="edgeStyle=orthogonalEdgeStyle;rounded=0;orthogonalLoop=1;jettySize=auto;html=1;entryX=0;entryY=0.5;entryDx=0;entryDy=0;jumpStyle=arc;" edge="1" parent="1" source="gPUy4qzwJH0H5ccG5IZ7-3" target="gPUy4qzwJH0H5ccG5IZ7-10">
          <mxGeometry relative="1" as="geometry">
            <Array as="points">
              <mxPoint x="270" y="950" />
              <mxPoint x="270" y="825" />
            </Array>
          </mxGeometry>
        </mxCell>
        <mxCell id="gPUy4qzwJH0H5ccG5IZ7-55" style="edgeStyle=orthogonalEdgeStyle;rounded=0;orthogonalLoop=1;jettySize=auto;html=1;entryX=0;entryY=0.25;entryDx=0;entryDy=0;jumpStyle=arc;" edge="1" parent="1" source="gPUy4qzwJH0H5ccG5IZ7-3" target="gPUy4qzwJH0H5ccG5IZ7-11">
          <mxGeometry relative="1" as="geometry">
            <Array as="points">
              <mxPoint x="270" y="960" />
              <mxPoint x="270" y="962" />
            </Array>
          </mxGeometry>
        </mxCell>
        <mxCell id="gPUy4qzwJH0H5ccG5IZ7-3" value="USERS" style="rounded=1;whiteSpace=wrap;html=1;" vertex="1" parent="1">
          <mxGeometry x="80" y="910" width="120" height="60" as="geometry" />
        </mxCell>
        <mxCell id="gPUy4qzwJH0H5ccG5IZ7-23" style="edgeStyle=orthogonalEdgeStyle;rounded=0;orthogonalLoop=1;jettySize=auto;html=1;entryX=0;entryY=0.5;entryDx=0;entryDy=0;" edge="1" parent="1" source="gPUy4qzwJH0H5ccG5IZ7-4" target="gPUy4qzwJH0H5ccG5IZ7-13">
          <mxGeometry relative="1" as="geometry" />
        </mxCell>
        <mxCell id="gPUy4qzwJH0H5ccG5IZ7-4" value="LOGIN" style="rounded=1;whiteSpace=wrap;html=1;" vertex="1" parent="1">
          <mxGeometry x="340" y="70" width="120" height="50" as="geometry" />
        </mxCell>
        <mxCell id="gPUy4qzwJH0H5ccG5IZ7-25" style="edgeStyle=orthogonalEdgeStyle;rounded=0;orthogonalLoop=1;jettySize=auto;html=1;entryX=0;entryY=0.5;entryDx=0;entryDy=0;" edge="1" parent="1" source="gPUy4qzwJH0H5ccG5IZ7-5" target="gPUy4qzwJH0H5ccG5IZ7-14">
          <mxGeometry relative="1" as="geometry" />
        </mxCell>
        <mxCell id="gPUy4qzwJH0H5ccG5IZ7-5" value="MANAGE&lt;div&gt;COURTS&lt;/div&gt;" style="rounded=1;whiteSpace=wrap;html=1;" vertex="1" parent="1">
          <mxGeometry x="340" y="200" width="120" height="50" as="geometry" />
        </mxCell>
        <mxCell id="gPUy4qzwJH0H5ccG5IZ7-40" style="edgeStyle=orthogonalEdgeStyle;rounded=0;orthogonalLoop=1;jettySize=auto;html=1;entryX=1;entryY=0.5;entryDx=0;entryDy=0;" edge="1" parent="1" source="gPUy4qzwJH0H5ccG5IZ7-6" target="gPUy4qzwJH0H5ccG5IZ7-13">
          <mxGeometry relative="1" as="geometry">
            <Array as="points">
              <mxPoint x="810" y="335" />
              <mxPoint x="810" y="95" />
            </Array>
          </mxGeometry>
        </mxCell>
        <mxCell id="gPUy4qzwJH0H5ccG5IZ7-6" value="MANAGE&lt;div&gt;USERS&lt;/div&gt;" style="rounded=1;whiteSpace=wrap;html=1;" vertex="1" parent="1">
          <mxGeometry x="340" y="310" width="120" height="50" as="geometry" />
        </mxCell>
        <mxCell id="gPUy4qzwJH0H5ccG5IZ7-31" style="edgeStyle=orthogonalEdgeStyle;rounded=0;orthogonalLoop=1;jettySize=auto;html=1;entryX=0;entryY=0.5;entryDx=0;entryDy=0;" edge="1" parent="1" source="gPUy4qzwJH0H5ccG5IZ7-7" target="gPUy4qzwJH0H5ccG5IZ7-16">
          <mxGeometry relative="1" as="geometry" />
        </mxCell>
        <mxCell id="gPUy4qzwJH0H5ccG5IZ7-7" value="MANAGE&lt;div&gt;CASES&lt;/div&gt;" style="rounded=1;whiteSpace=wrap;html=1;" vertex="1" parent="1">
          <mxGeometry x="340" y="430" width="120" height="50" as="geometry" />
        </mxCell>
        <mxCell id="gPUy4qzwJH0H5ccG5IZ7-32" style="edgeStyle=orthogonalEdgeStyle;rounded=0;orthogonalLoop=1;jettySize=auto;html=1;entryX=0;entryY=0.5;entryDx=0;entryDy=0;" edge="1" parent="1" source="gPUy4qzwJH0H5ccG5IZ7-8" target="gPUy4qzwJH0H5ccG5IZ7-17">
          <mxGeometry relative="1" as="geometry" />
        </mxCell>
        <mxCell id="gPUy4qzwJH0H5ccG5IZ7-8" value="MANAGE&lt;div&gt;PROCEEDINGS&lt;/div&gt;" style="rounded=1;whiteSpace=wrap;html=1;" vertex="1" parent="1">
          <mxGeometry x="340" y="550" width="120" height="50" as="geometry" />
        </mxCell>
        <mxCell id="gPUy4qzwJH0H5ccG5IZ7-34" style="edgeStyle=orthogonalEdgeStyle;rounded=0;orthogonalLoop=1;jettySize=auto;html=1;entryX=0;entryY=0.5;entryDx=0;entryDy=0;" edge="1" parent="1" source="gPUy4qzwJH0H5ccG5IZ7-9" target="gPUy4qzwJH0H5ccG5IZ7-18">
          <mxGeometry relative="1" as="geometry" />
        </mxCell>
        <mxCell id="gPUy4qzwJH0H5ccG5IZ7-9" value="MANAGE&lt;div&gt;INVOICES&lt;/div&gt;" style="rounded=1;whiteSpace=wrap;html=1;" vertex="1" parent="1">
          <mxGeometry x="340" y="680" width="120" height="50" as="geometry" />
        </mxCell>
        <mxCell id="gPUy4qzwJH0H5ccG5IZ7-36" style="edgeStyle=orthogonalEdgeStyle;rounded=0;orthogonalLoop=1;jettySize=auto;html=1;entryX=0;entryY=0.5;entryDx=0;entryDy=0;" edge="1" parent="1" source="gPUy4qzwJH0H5ccG5IZ7-10" target="gPUy4qzwJH0H5ccG5IZ7-19">
          <mxGeometry relative="1" as="geometry" />
        </mxCell>
        <mxCell id="gPUy4qzwJH0H5ccG5IZ7-10" value="MANAGE&lt;div&gt;PAYMENTS&lt;/div&gt;" style="rounded=1;whiteSpace=wrap;html=1;" vertex="1" parent="1">
          <mxGeometry x="340" y="800" width="120" height="50" as="geometry" />
        </mxCell>
        <mxCell id="gPUy4qzwJH0H5ccG5IZ7-38" style="edgeStyle=orthogonalEdgeStyle;rounded=0;orthogonalLoop=1;jettySize=auto;html=1;entryX=0;entryY=0.5;entryDx=0;entryDy=0;" edge="1" parent="1" source="gPUy4qzwJH0H5ccG5IZ7-11" target="gPUy4qzwJH0H5ccG5IZ7-20">
          <mxGeometry relative="1" as="geometry" />
        </mxCell>
        <mxCell id="gPUy4qzwJH0H5ccG5IZ7-11" value="MANAGE&lt;div&gt;RECEIPTS&lt;/div&gt;" style="rounded=1;whiteSpace=wrap;html=1;" vertex="1" parent="1">
          <mxGeometry x="340" y="950" width="120" height="50" as="geometry" />
        </mxCell>
        <mxCell id="gPUy4qzwJH0H5ccG5IZ7-24" style="edgeStyle=orthogonalEdgeStyle;rounded=0;orthogonalLoop=1;jettySize=auto;html=1;" edge="1" parent="1" source="gPUy4qzwJH0H5ccG5IZ7-13" target="gPUy4qzwJH0H5ccG5IZ7-4">
          <mxGeometry relative="1" as="geometry" />
        </mxCell>
        <mxCell id="gPUy4qzwJH0H5ccG5IZ7-41" style="edgeStyle=orthogonalEdgeStyle;rounded=0;orthogonalLoop=1;jettySize=auto;html=1;entryX=1;entryY=0.5;entryDx=0;entryDy=0;" edge="1" parent="1" source="gPUy4qzwJH0H5ccG5IZ7-13" target="gPUy4qzwJH0H5ccG5IZ7-6">
          <mxGeometry relative="1" as="geometry">
            <Array as="points">
              <mxPoint x="810" y="95" />
              <mxPoint x="810" y="335" />
            </Array>
          </mxGeometry>
        </mxCell>
        <mxCell id="gPUy4qzwJH0H5ccG5IZ7-13" value="USER&lt;div&gt;RECORDS&lt;/div&gt;" style="html=1;dashed=0;whiteSpace=wrap;shape=partialRectangle;right=0;" vertex="1" parent="1">
          <mxGeometry x="640" y="75" width="133.33" height="40" as="geometry" />
        </mxCell>
        <mxCell id="gPUy4qzwJH0H5ccG5IZ7-26" style="edgeStyle=orthogonalEdgeStyle;rounded=0;orthogonalLoop=1;jettySize=auto;html=1;" edge="1" parent="1" source="gPUy4qzwJH0H5ccG5IZ7-14">
          <mxGeometry relative="1" as="geometry">
            <mxPoint x="460" y="225" as="targetPoint" />
          </mxGeometry>
        </mxCell>
        <mxCell id="gPUy4qzwJH0H5ccG5IZ7-14" value="COURT&lt;div&gt;RECORDS&lt;/div&gt;" style="html=1;dashed=0;whiteSpace=wrap;shape=partialRectangle;right=0;" vertex="1" parent="1">
          <mxGeometry x="640" y="205" width="133.33" height="40" as="geometry" />
        </mxCell>
        <mxCell id="gPUy4qzwJH0H5ccG5IZ7-30" style="edgeStyle=orthogonalEdgeStyle;rounded=0;orthogonalLoop=1;jettySize=auto;html=1;entryX=1;entryY=0.5;entryDx=0;entryDy=0;" edge="1" parent="1" source="gPUy4qzwJH0H5ccG5IZ7-16" target="gPUy4qzwJH0H5ccG5IZ7-7">
          <mxGeometry relative="1" as="geometry" />
        </mxCell>
        <mxCell id="gPUy4qzwJH0H5ccG5IZ7-16" value="CASE&lt;div&gt;RECORDS&lt;/div&gt;" style="html=1;dashed=0;whiteSpace=wrap;shape=partialRectangle;right=0;" vertex="1" parent="1">
          <mxGeometry x="650" y="435" width="133.33" height="40" as="geometry" />
        </mxCell>
        <mxCell id="gPUy4qzwJH0H5ccG5IZ7-33" style="edgeStyle=orthogonalEdgeStyle;rounded=0;orthogonalLoop=1;jettySize=auto;html=1;" edge="1" parent="1" source="gPUy4qzwJH0H5ccG5IZ7-17" target="gPUy4qzwJH0H5ccG5IZ7-8">
          <mxGeometry relative="1" as="geometry" />
        </mxCell>
        <mxCell id="gPUy4qzwJH0H5ccG5IZ7-17" value="PROCEEDING&lt;div&gt;RECORDS&lt;/div&gt;" style="html=1;dashed=0;whiteSpace=wrap;shape=partialRectangle;right=0;" vertex="1" parent="1">
          <mxGeometry x="650" y="555" width="133.33" height="40" as="geometry" />
        </mxCell>
        <mxCell id="gPUy4qzwJH0H5ccG5IZ7-35" style="edgeStyle=orthogonalEdgeStyle;rounded=0;orthogonalLoop=1;jettySize=auto;html=1;entryX=1;entryY=0.5;entryDx=0;entryDy=0;" edge="1" parent="1" source="gPUy4qzwJH0H5ccG5IZ7-18" target="gPUy4qzwJH0H5ccG5IZ7-9">
          <mxGeometry relative="1" as="geometry" />
        </mxCell>
        <mxCell id="gPUy4qzwJH0H5ccG5IZ7-18" value="INVOICE&lt;div&gt;RECORDS&lt;/div&gt;" style="html=1;dashed=0;whiteSpace=wrap;shape=partialRectangle;right=0;" vertex="1" parent="1">
          <mxGeometry x="650" y="685" width="133.33" height="40" as="geometry" />
        </mxCell>
        <mxCell id="gPUy4qzwJH0H5ccG5IZ7-37" style="edgeStyle=orthogonalEdgeStyle;rounded=0;orthogonalLoop=1;jettySize=auto;html=1;" edge="1" parent="1" source="gPUy4qzwJH0H5ccG5IZ7-19">
          <mxGeometry relative="1" as="geometry">
            <mxPoint x="460" y="825" as="targetPoint" />
          </mxGeometry>
        </mxCell>
        <mxCell id="gPUy4qzwJH0H5ccG5IZ7-19" value="PAYMENT&lt;div&gt;RECORDS&lt;/div&gt;" style="html=1;dashed=0;whiteSpace=wrap;shape=partialRectangle;right=0;" vertex="1" parent="1">
          <mxGeometry x="660" y="805" width="133.33" height="40" as="geometry" />
        </mxCell>
        <mxCell id="gPUy4qzwJH0H5ccG5IZ7-39" style="edgeStyle=orthogonalEdgeStyle;rounded=0;orthogonalLoop=1;jettySize=auto;html=1;entryX=1;entryY=0.5;entryDx=0;entryDy=0;" edge="1" parent="1" source="gPUy4qzwJH0H5ccG5IZ7-20" target="gPUy4qzwJH0H5ccG5IZ7-11">
          <mxGeometry relative="1" as="geometry" />
        </mxCell>
        <mxCell id="gPUy4qzwJH0H5ccG5IZ7-20" value="RECEIPT&lt;div&gt;RECORDS&lt;/div&gt;" style="html=1;dashed=0;whiteSpace=wrap;shape=partialRectangle;right=0;" vertex="1" parent="1">
          <mxGeometry x="660" y="955" width="133.33" height="40" as="geometry" />
        </mxCell>
      </root>
    </mxGraphModel>
  </diagram>
</mxfile>
